# xmcd CD database file
#
# Track frame offsets:
#	150
#	8995
#	29037
#	33634
#	38951
#	42501
#	49256
#	53962
#	71581
#	74341
#	97823
#	115282
#	120259
#	144424
#
# Disc length: 2167 seconds
#
# Revision: 0
# Processed by: cddbd v1.5.2PL0 Copyright (c) Steve Scherf et al.
# Submitted via: CDex 1.70beta2
#
DISCID=c908750e
DTITLE=日出克 - 高野山への道　オリジナルサウンド・トラック
DYEAR=1900
DGENRE=New Age
TTITLE0=Henro Blues
TTITLE1=MANDA-LA
TTITLE2=Road To Koya
TTITLE3=信念の読経
TTITLE4=イクコの語り
TTITLE5=夏の午後アンソロジー
TTITLE6=信念と真の諍い
TTITLE7=アジアを渡る風
TTITLE8=母と真
TTITLE9=天降り
TTITLE10=蒼の謡
TTITLE11=大門にて～それぞれの岐路（みち）
TTITLE12=ハナレウタ
TTITLE13=祈り
EXTD=
EXTT0=
EXTT1=
EXTT2=
EXTT3=
EXTT4=
EXTT5=
EXTT6=
EXTT7=
EXTT8=
EXTT9=
EXTT10=
EXTT11=
EXTT12=
EXTT13=
PLAYORDER=
